# 3ds Max Wavefront OBJ Exporter v0.97b - (c)2007 guruware
# File Created: 26.10.2015 21:05:53

mtllib Inner Wall 3.mtl

#
# object Inner_Wall_03
#

v  310168.5313 76729.5234 54691.0859
v  303706.4375 76729.5234 53551.6406
v  303706.4375 76729.5156 -53551.6406
v  310168.5625 76729.5156 -54691.0859
v  310169.0000 97133.0547 54691.1680
v  310169.0313 97133.0391 -54691.1719
v  303711.2813 98883.0625 53552.5703
v  310164.1563 98883.0547 54690.2383
v  310164.1563 98883.0469 -54690.3867
v  303711.3125 98883.0469 -53552.4258
v  303706.4375 97133.0625 53551.6367
v  303706.4375 97133.0469 -53551.6445
v  303221.5000 97633.0625 53466.1289
v  303221.5000 97633.0469 -53466.1445
v  303221.5000 98383.0625 53466.1367
v  303221.5000 98383.0469 -53466.1367
v  310165.7813 98299.7109 -54690.6484
v  310165.7813 98299.7188 54690.5469
v  310167.4063 97716.3906 54690.8594
v  310167.4063 97716.3750 -54690.9102
# 20 vertices

vn -0.0000 -1.0000 0.0000
vn 0.0000 -1.0000 0.0000
vn 1.0000 -0.0000 0.0000
vn 0.0000 1.0000 -0.0000
vn -1.0000 -0.0000 -0.0000
vn -0.7178 -0.6962 0.0000
vn -0.7144 0.6998 -0.0000
vn 1.0000 0.0028 -0.0000
vn -0.1736 0.0000 0.9848
vn -0.1736 -0.0001 0.9848
vn -0.1736 -0.0000 -0.9848
vn -0.1737 -0.0000 -0.9848
vn -0.1737 0.0001 -0.9848
# 13 vertex normals

vt 0.5641 0.9980 0.0496
vt 0.3889 0.9876 0.0048
vt 0.3889 0.0124 0.0048
vt 0.5641 0.0020 0.0496
vt 0.7381 0.9980 -0.0008
vt 0.7381 0.0020 -0.0008
vt 0.1347 0.9876 0.0044
vt 0.0646 0.9980 0.0492
vt 0.0646 0.0020 0.0492
vt 0.1347 0.0124 0.0044
vt 0.1973 0.9876 -0.0496
vt 0.1973 0.0124 -0.0496
vt 0.2031 0.9868 0.0131
vt 0.2031 0.0132 0.0131
vt 0.1988 0.9868 0.0348
vt 0.1988 0.0132 0.0348
vt 0.0089 0.0020 0.0320
vt 0.0089 0.9980 0.0320
vt 0.0055 0.9980 0.0153
vt 0.0055 0.0020 0.0153
vt 0.7469 0.0728 0.0000
vt 0.7469 0.0020 0.0000
vt 0.9703 0.0020 0.0000
vt 0.9703 0.0728 0.0000
vt 0.0020 0.9980 -0.0008
vt 0.0020 0.0020 -0.0008
vt 0.9831 0.0020 0.0000
vt 0.9840 0.0781 0.0000
vt 0.9758 0.0781 0.0000
vt 0.9767 0.0020 0.0000
vt 0.9895 0.0021 0.0000
vt 0.9895 0.0727 0.0000
vt 0.9703 0.0922 0.0000
vt 0.9703 0.1629 0.0000
vt 0.7469 0.1629 0.0000
vt 0.7469 0.0922 0.0000
vt 0.9840 0.0869 0.0000
vt 0.9831 0.1629 0.0000
vt 0.9767 0.1629 0.0000
vt 0.9758 0.0869 0.0000
vt 0.9895 0.0922 0.0000
vt 0.9895 0.1629 0.0000
# 42 texture coords

g Inner_Wall_03
usemtl wire_056037023
s 8
f 1/1/1 2/2/1 3/3/2 4/4/2 
s 16
f 5/5/3 1/1/3 4/4/3 6/6/3 
s 32
f 7/7/4 8/8/4 9/9/4 10/10/4 
s 64
f 2/2/5 11/11/5 12/12/5 3/3/5 
s off
f 13/13/6 14/14/6 12/12/6 11/11/6 
f 15/15/5 16/16/5 14/14/5 13/13/5 
f 7/7/7 10/10/7 16/16/7 15/15/7 
f 17/17/8 18/18/8 19/19/8 20/20/8 
f 2/21/9 1/22/9 5/23/9 11/24/9 
f 20/20/8 19/19/8 5/25/8 6/26/8 
f 18/18/8 17/17/8 9/9/8 8/8/8 
f 18/27/9 15/28/9 13/29/9 19/30/9 
f 19/30/9 13/29/9 11/24/9 5/23/9 
f 18/27/10 8/31/10 7/32/10 15/28/10 
f 12/33/11 6/34/11 4/35/11 3/36/11 
f 16/37/12 17/38/12 20/39/12 14/40/12 
f 12/33/11 14/40/11 20/39/11 6/34/11 
f 10/41/13 9/42/13 17/38/13 16/37/13 
# 18 polygons

