# 3ds Max Wavefront OBJ Exporter v0.97b - (c)2007 guruware
# File Created: 26.10.2015 16:51:09

mtllib Outer Wall Small.mtl

#
# object Outer_Wall_Small_01
#

v  399968.9375 75499.7813 -69956.2109
v  388738.2500 75499.5625 -67975.8984
v  388738.6250 75499.5938 67975.9141
v  399969.3125 75499.8125 69956.1641
v  399969.3125 65499.8125 69956.1484
v  399968.9063 65499.7813 -69956.2031
v  388738.6250 65499.8438 67975.9141
v  388738.2500 65499.8125 -67975.8984
# 8 vertices

vn -0.0000 1.0000 -0.0000
vn 1.0000 -0.0000 -0.0000
vn -0.1736 -0.0000 0.9848
vn -0.1737 0.0000 -0.9848
# 4 vertex normals

vt 0.9521 0.4472 0.0000
vt 0.9372 0.4836 0.0000
vt 0.0471 0.4836 0.0000
vt 0.0341 0.4471 0.0000
vt 0.0332 0.4068 0.0000
vt 0.9520 0.4068 0.0000
vt 0.9520 0.4460 0.0000
vt 0.0332 0.4460 0.0000
vt 0.4321 0.2947 0.0000
vt 0.3937 0.2947 0.0000
vt 0.3937 0.2563 0.0000
vt 0.4321 0.2563 0.0000
vt 0.4329 0.2535 0.0000
vt 0.4329 0.2151 0.0000
vt 0.3945 0.2151 0.0000
vt 0.3945 0.2535 0.0000
# 16 texture coords

g Outer_Wall_Small_01
usemtl wire_135104084
s 32
f 1/1/1 2/2/1 3/3/1 4/4/1 
s 4
f 5/5/2 6/6/2 1/7/2 4/8/2 
s off
f 4/9/3 3/10/3 7/11/3 5/12/3 
f 1/13/4 6/14/4 8/15/4 2/16/4 
# 4 polygons

