# 3ds Max Wavefront OBJ Exporter v0.97b - (c)2007 guruware
# File Created: 26.10.2015 18:00:21

mtllib Window Trim.mtl

#
# object Window_Trim_026
#

v  395399.1250 267234.2813 58673.5078
v  394692.5625 266460.1250 58673.5078
v  391531.2500 266460.1250 58673.5078
v  391531.2500 267234.2813 58673.5078
v  391531.2500 268657.9063 58673.5078
v  395399.1250 268657.9063 58673.5078
v  395399.1250 267234.2813 63326.4922
v  391531.2500 267234.2813 63326.4922
v  391531.2500 266460.1250 63326.4922
v  394692.5625 266460.1250 63326.4922
v  391531.2500 268657.9063 63326.4922
v  395399.1250 268657.9063 63326.4922
v  391531.2500 270717.8750 63326.4922
v  396344.7500 270717.8750 63326.4922
v  396344.7500 270717.8750 58673.5078
v  391531.2500 270717.8750 58673.5078
v  391531.2500 269743.8438 58673.5078
v  396344.7500 269743.8438 58673.5078
v  391531.2500 269743.8438 63326.4922
v  396344.7500 269743.8438 63326.4922
# 20 vertices

vn -0.0000 0.0000 -1.0000
vn 0.0000 -0.0000 -1.0000
vn -0.0000 -0.0000 -1.0000
vn 0.0000 0.0000 -1.0000
vn -0.0000 -0.0000 1.0000
vn -0.0000 -1.0000 -0.0000
vn 0.0000 -1.0000 -0.0000
vn 0.9324 -0.3615 -0.0000
vn 0.7386 -0.6741 -0.0000
vn 0.9365 -0.3506 -0.0000
vn 0.0000 1.0000 0.0000
vn 0.0000 -0.0000 1.0000
vn 1.0000 -0.0000 -0.0000
# 13 vertex normals

vt 0.6077 0.0606 0.0000
vt 0.5604 0.0020 0.0000
vt 0.3487 0.0020 0.0000
vt 0.3487 0.0606 0.0000
vt 0.3487 0.1684 0.0000
vt 0.6077 0.1684 0.0000
vt 0.6077 0.3901 0.0000
vt 0.3487 0.3901 0.0000
vt 0.3487 0.3315 0.0000
vt 0.5604 0.3315 0.0000
vt 0.3487 0.4979 0.0000
vt 0.6077 0.4979 0.0000
vt 0.5700 0.6610 0.0000
vt 0.3487 0.6610 0.0000
vt 0.3487 0.9980 0.0000
vt 0.5700 0.9980 0.0000
vt 0.0020 0.0637 0.0000
vt 0.0020 0.0020 0.0000
vt 0.3415 0.0020 0.0000
vt 0.3415 0.0637 0.0000
vt 0.3415 0.1772 0.0000
vt 0.0020 0.1772 0.0000
vt 0.0020 0.3487 0.0000
vt 0.3390 0.3487 0.0000
vt 0.3390 0.6856 0.0000
vt 0.0020 0.6856 0.0000
vt 0.3487 0.2506 0.0000
vt 0.6710 0.2506 0.0000
vt 0.3487 0.5801 0.0000
vt 0.6710 0.5801 0.0000
vt 0.3415 0.2638 0.0000
vt 0.0020 0.2638 0.0000
vt 0.3487 0.3244 0.0000
vt 0.6710 0.3244 0.0000
vt 0.3487 0.6539 0.0000
vt 0.6710 0.6539 0.0000
vt 0.3415 0.3415 0.0000
vt 0.0020 0.3415 0.0000
# 38 texture coords

g Window_Trim_026
usemtl wire_078050030
s 2
f 1/1/1 2/2/2 3/3/3 4/4/1 
f 1/1/1 4/4/1 5/5/1 6/6/4 
s 4
f 7/7/5 8/8/5 9/9/5 10/10/5 
f 11/11/5 8/8/5 7/7/5 12/12/5 
s 8
f 10/13/6 9/14/6 3/15/6 2/16/7 
s 16
f 7/17/8 10/18/9 2/19/9 1/20/8 
f 7/17/8 1/20/8 6/21/10 12/22/10 
s 32
f 13/23/11 14/24/11 15/25/11 16/26/11 
s 2
f 6/6/4 5/5/1 17/27/4 18/28/4 
s 4
f 19/29/5 11/11/5 12/12/5 20/30/5 
s 16
f 12/22/10 6/21/10 18/31/10 20/32/10 
s 2
f 18/28/4 17/27/4 16/33/4 15/34/4 
s 4
f 13/35/12 19/29/5 20/30/5 14/36/5 
s 16
f 20/32/10 18/31/10 15/37/13 14/38/13 
# 14 polygons

