# 3ds Max Wavefront OBJ Exporter v0.97b - (c)2007 guruware
# File Created: 26.10.2015 16:27:40

mtllib Pillar 4th Floor.mtl

#
# object Pillar_4th_Floor_01
#

v  391995.5938 280092.2500 19957.3828
v  391995.5938 232000.0313 19957.3828
v  391995.1563 232000.0313 26042.6172
v  391995.1563 280092.2500 26042.6172
v  397767.8750 229000.0313 20876.8555
v  397767.8125 229000.0313 25123.2012
v  397767.8125 206881.6250 25123.2012
v  397767.7500 206881.6250 20876.7402
v  396495.5938 280092.2500 21397.7832
v  396495.5938 280092.2500 24602.2168
v  396495.5938 232000.0313 24602.2148
v  396495.5938 232000.0313 21397.7832
v  397131.7188 286567.6563 21137.2910
v  397131.7500 286567.6563 24862.6797
v  397131.6875 281939.5625 24862.7363
v  397131.7188 281939.5625 21137.2910
v  391995.1563 206881.6250 19073.6348
v  391995.1563 229000.0313 19073.6367
v  391995.1563 281939.5625 19515.5117
v  391995.1563 286567.6563 19515.5098
v  391995.1563 286567.6563 26484.4902
v  391995.1563 281939.5625 26484.4902
v  391995.1563 229000.0313 26926.3652
v  391995.1563 206881.6250 26926.3652
# 24 vertices

vn -1.0000 -0.0001 -0.0001
vn -1.0000 0.0001 -0.0001
vn -1.0000 0.0000 -0.0000
vn -1.0000 -0.0000 -0.0000
vn 1.0000 -0.0000 0.0000
vn 1.0000 0.0000 0.0000
vn 1.0000 -0.0000 -0.0000
vn 0.2982 0.0000 -0.9545
vn 0.2981 0.0000 -0.9545
vn 0.3049 -0.0000 -0.9524
vn 0.3049 0.0000 -0.9524
vn 0.3011 -0.0000 -0.9536
vn 0.3011 0.0000 -0.9536
vn 0.3011 0.0000 0.9536
vn 0.3011 -0.0000 0.9536
vn 0.3048 -0.0000 0.9524
vn 0.2982 -0.0000 0.9545
vn 0.2982 0.0000 0.9545
vn 0.2949 -0.2272 0.9281
vn 0.9455 -0.3256 0.0000
vn 0.2949 -0.2272 -0.9281
vn -1.0000 -0.0001 -0.0000
vn -1.0000 0.0000 0.0000
vn 0.0000 1.0000 -0.0000
vn 0.0000 -1.0000 -0.0000
vn -1.0000 0.0001 -0.0000
vn 0.2894 0.2759 -0.9166
vn 0.9206 0.3904 0.0000
vn 0.2894 0.2760 0.9166
# 29 vertex normals

vt 0.3103 0.8979 0.1059
vt 0.3103 0.3094 0.1059
vt 0.5149 0.3094 0.1059
vt 0.5149 0.8979 0.1059
vt 0.9771 0.2727 0.0418
vt 0.8232 0.2727 0.0418
vt 0.8232 0.0020 0.0418
vt 0.9771 0.0020 0.0418
vt 0.9980 0.8979 -0.1805
vt 0.8023 0.8979 -0.1805
vt 0.8023 0.3094 -0.1805
vt 0.9980 0.3094 -0.1805
vt 0.9850 0.9771 -0.0703
vt 0.8153 0.9771 -0.0703
vt 0.8153 0.9205 -0.0703
vt 0.9850 0.9205 -0.0703
vt 0.0020 0.2727 0.0418
vt 0.0020 0.0020 0.0418
vt 0.2907 0.0020 0.1805
vt 0.2907 0.2727 0.1805
vt 0.0229 0.8979 -0.1805
vt 0.0229 0.3094 -0.1805
vt 0.0099 0.9771 -0.0703
vt 0.0099 0.9205 -0.0703
vt 0.3000 0.9205 0.1419
vt 0.3000 0.9771 0.1419
vt 0.5253 0.9771 0.1419
vt 0.5253 0.9205 0.1419
vt 0.5345 0.2727 0.1805
vt 0.5345 0.0020 0.1805
# 30 texture coords

g Pillar_4th_Floor_01
usemtl wire_032017000
s 2
f 1/1/1 2/2/2 3/3/3 4/4/4 
s 4
f 5/5/5 6/6/6 7/7/7 8/8/7 
f 9/9/6 10/10/6 11/11/5 12/12/5 
f 13/13/7 14/14/7 15/15/5 16/16/5 
s 16
f 5/17/8 8/18/9 17/19/8 18/20/8 
f 9/21/10 12/22/11 2/2/11 1/1/10 
f 13/23/12 16/24/13 19/25/12 20/26/12 
s 64
f 15/15/14 14/14/14 21/27/14 22/28/15 
f 11/11/16 10/10/16 4/4/16 3/3/16 
f 7/7/17 6/6/18 23/29/18 24/30/17 
s off
f 15/15/19 22/28/19 4/4/19 10/10/19 
f 16/16/20 15/15/20 10/10/20 9/9/20 
f 19/25/21 16/24/21 9/21/21 1/1/21 
s 2
f 19/25/22 1/1/1 4/4/4 22/28/23 
s 32
f 20/26/24 21/27/24 14/14/24 13/13/24 
s 8
f 24/30/25 17/19/25 8/8/25 7/7/25 
s 2
f 17/19/23 24/30/23 23/29/23 18/20/26 
s off
f 5/17/27 18/20/27 2/2/27 12/22/27 
f 6/6/28 5/5/28 12/12/28 11/11/28 
f 23/29/29 6/6/29 11/11/29 3/3/29 
s 2
f 18/20/26 23/29/23 3/3/3 2/2/2 
f 19/25/22 22/28/23 21/27/23 20/26/3 
# 22 polygons

