# 3ds Max Wavefront OBJ Exporter v0.97b - (c)2007 guruware
# File Created: 26.10.2015 19:05:22

mtllib Inner Wall 5.mtl

#
# object Inner_Walll_010
#

v  351317.6875 177402.6094 -61946.7813
v  351317.6875 177402.6094 61946.7500
v  349257.3438 177402.6094 61583.4688
v  349257.3438 177402.6094 -61583.4688
v  349257.3125 185759.9844 61583.4688
v  349257.3125 185759.9844 -61583.4688
v  350535.0625 186994.2656 61808.7500
v  350535.0625 186994.2656 -61808.7813
v  350535.0625 193806.6406 -61808.7813
v  350535.0625 193806.6563 61808.7500
v  351317.6875 193806.6563 61946.7813
v  351317.6875 193806.6563 -61946.7813
v  351317.6875 186994.2656 61946.7500
v  351317.6875 186994.2656 -61946.7813
v  351317.6875 185759.9844 61946.7500
v  351317.6875 185759.9844 -61946.7813
# 16 vertices

vn 0.0000 -1.0000 -0.0000
vn -1.0000 0.0000 -0.0000
vn -0.9199 0.3921 -0.0000
vn -0.6948 0.7192 -0.0000
vn 0.0000 1.0000 -0.0000
vn 1.0000 0.0000 -0.0000
vn -0.0161 0.0000 -0.9999
vn -0.0161 0.0000 0.9999
# 8 vertex normals

vt 0.9428 0.2469 0.0000
vt 0.9428 0.0020 0.0000
vt 0.6979 0.0027 0.0000
vt 0.6979 0.2461 0.0000
vt 0.6889 0.1511 0.0000
vt 0.0020 0.1511 0.0000
vt 0.0020 0.2049 0.0000
vt 0.6889 0.2049 0.0000
vt 0.9490 0.9905 0.0000
vt 0.9490 0.3246 0.0000
vt 0.9597 0.3234 0.0000
vt 0.9597 0.9917 0.0000
vt 0.7520 0.9557 0.0000
vt 0.7520 0.7113 0.0000
vt 0.8450 0.7111 0.0000
vt 0.8450 0.9559 0.0000
vt 0.6929 0.7020 0.0000
vt 0.0020 0.7020 0.0000
vt 0.0020 0.4151 0.0000
vt 0.6929 0.4151 0.0000
vt 0.0020 0.3631 0.0000
vt 0.6929 0.3631 0.0000
vt 0.0020 0.8800 0.0000
vt 0.6914 0.8800 0.0000
vt 0.6914 0.8291 0.0000
vt 0.0020 0.8291 0.0000
vt 0.8681 0.3965 0.0000
vt 0.8681 0.3507 0.0000
vt 0.7783 0.3507 0.0000
vt 0.7783 0.3965 0.0000
vt 0.8340 0.4032 0.0000
vt 0.8681 0.4032 0.0000
vt 0.8340 0.4405 0.0000
vt 0.8681 0.4405 0.0000
vt 0.8769 0.4579 0.0000
vt 0.8769 0.5036 0.0000
vt 0.7871 0.5036 0.0000
vt 0.7871 0.4579 0.0000
vt 0.8769 0.5104 0.0000
vt 0.8428 0.5104 0.0000
vt 0.8769 0.5477 0.0000
vt 0.8428 0.5477 0.0000
# 42 texture coords

g Inner_Walll_010
usemtl wire_056037023
s 1
f 1/1/1 2/2/1 3/3/1 4/4/1 
f 4/5/2 3/6/2 5/7/3 6/8/3 
f 6/9/3 5/10/3 7/11/4 8/12/4 
f 9/13/5 10/14/5 11/15/5 12/16/5 
f 12/17/6 11/18/6 13/19/6 14/20/6 
f 14/20/6 13/19/6 15/21/6 16/22/6 
f 10/23/2 9/24/2 8/25/2 7/26/2 
f 16/27/7 1/28/7 4/29/7 6/30/7 
f 8/31/7 14/32/7 16/27/7 6/30/7 
f 14/32/7 8/31/7 9/33/7 12/34/7 
f 2/35/8 15/36/8 5/37/8 3/38/8 
f 15/36/8 13/39/8 7/40/8 5/37/8 
f 13/39/8 11/41/8 10/42/8 7/40/8 
# 13 polygons

