# 3ds Max Wavefront OBJ Exporter v0.97b - (c)2007 guruware
# File Created: 26.10.2015 15:55:45

mtllib Pillar_1st_Floor.mtl

#
# object Pillar_1st_Floor_01
#

v  398114.0938 51585.0313 18359.2539
v  398114.0938 3676.1172 18359.2539
v  398113.6563 3676.1172 27640.7461
v  398113.6563 51585.0313 27640.7461
v  403886.3750 2435.6582 19761.6777
v  403886.3125 2435.6582 26238.4082
v  403886.3125 0.0430 26238.4082
v  403886.2500 -0.0430 19761.5039
v  402614.0938 51585.0313 20556.2207
v  402614.0938 51585.0313 25443.7773
v  402614.0938 3676.1172 25443.7754
v  402614.0938 3676.1172 20556.2207
v  403250.2188 55000.0430 20158.9063
v  403250.2500 55000.0430 25841.0488
v  403250.1875 52978.8516 25841.1348
v  403250.2188 52978.8516 20158.9043
v  398113.6563 -0.0430 17011.3203
v  398113.6563 2435.6582 17011.3203
v  398113.6563 52978.8516 17685.2871
v  398113.6563 55000.0430 17685.2871
v  398113.6563 55000.0430 28314.7129
v  398113.6563 52978.8516 28314.7129
v  398113.6563 2435.6582 28988.6797
v  398113.6563 -0.0430 28988.6797
# 24 vertices

vn -1.0000 -0.0002 -0.0000
vn -1.0000 0.0002 -0.0000
vn -1.0000 0.0000 -0.0000
vn -1.0000 -0.0000 -0.0000
vn 1.0000 -0.0000 -0.0000
vn 1.0000 0.0000 0.0000
vn 1.0000 -0.0000 0.0000
vn 0.4301 0.0000 -0.9028
vn 0.4301 -0.0000 -0.9028
vn 0.4387 0.0000 -0.8986
vn 0.4339 0.0000 -0.9010
vn 0.4339 -0.0000 -0.9010
vn 0.4339 0.0000 0.9010
vn 0.4339 -0.0000 0.9010
vn 0.4387 -0.0000 0.8986
vn 0.4301 0.0000 0.9028
vn 0.4301 -0.0000 0.9028
vn 0.3984 -0.4068 0.8220
vn 0.9097 -0.4152 0.0000
vn 0.3984 -0.4068 -0.8221
vn -1.0000 -0.0001 -0.0000
vn -1.0000 0.0000 0.0000
vn 0.0000 1.0000 -0.0000
vn 0.0000 -1.0000 0.0000
vn 0.0000 -1.0000 -0.0000
vn -1.0000 0.0001 -0.0000
vn 0.3067 0.7073 -0.6369
vn 0.6981 0.7160 0.0000
vn 0.3067 0.7073 0.6369
# 29 vertex normals

vt 0.3103 0.9166 0.1059
vt 0.3103 0.0672 0.1059
vt 0.5149 0.0672 0.1059
vt 0.5149 0.9166 0.1059
vt 0.9771 0.0452 0.0418
vt 0.8232 0.0452 0.0418
vt 0.8232 0.0020 0.0418
vt 0.9771 0.0020 0.0418
vt 0.9980 0.9166 -0.1805
vt 0.8023 0.9166 -0.1805
vt 0.8023 0.0672 -0.1805
vt 0.9980 0.0672 -0.1805
vt 0.9850 0.9771 -0.0703
vt 0.8153 0.9771 -0.0703
vt 0.8153 0.9413 -0.0703
vt 0.9850 0.9413 -0.0703
vt 0.0020 0.0452 0.0418
vt 0.0020 0.0020 0.0418
vt 0.2907 0.0020 0.1805
vt 0.2907 0.0452 0.1805
vt 0.0229 0.9166 -0.1805
vt 0.0229 0.0672 -0.1805
vt 0.0099 0.9771 -0.0703
vt 0.0099 0.9413 -0.0703
vt 0.3000 0.9413 0.1419
vt 0.3000 0.9771 0.1419
vt 0.5253 0.9771 0.1419
vt 0.5253 0.9413 0.1419
vt 0.5345 0.0452 0.1805
vt 0.5345 0.0020 0.1805
# 30 texture coords

g Pillar_1st_Floor_01
usemtl wire_032017000
s 2
f 1/1/1 2/2/2 3/3/3 4/4/4 
s 4
f 5/5/5 6/6/6 7/7/7 8/8/5 
f 9/9/7 10/10/7 11/11/7 12/12/7 
f 13/13/7 14/14/5 15/15/5 16/16/7 
s 16
f 5/17/8 8/18/8 17/19/8 18/20/9 
f 9/21/10 12/22/10 2/2/10 1/1/10 
f 13/23/11 16/24/11 19/25/12 20/26/12 
s 64
f 15/15/13 14/14/13 21/27/13 22/28/14 
f 11/11/15 10/10/15 4/4/15 3/3/15 
f 7/7/16 6/6/16 23/29/17 24/30/17 
s off
f 15/15/18 22/28/18 4/4/18 10/10/18 
f 16/16/19 15/15/19 10/10/19 9/9/19 
f 19/25/20 16/24/20 9/21/20 1/1/20 
s 2
f 19/25/21 1/1/1 4/4/4 22/28/22 
s 32
f 20/26/23 21/27/23 14/14/23 13/13/23 
s 8
f 24/30/24 17/19/25 8/8/24 7/7/24 
s 2
f 17/19/3 24/30/22 23/29/22 18/20/26 
s off
f 5/17/27 18/20/27 2/2/27 12/22/27 
f 6/6/28 5/5/28 12/12/28 11/11/28 
f 23/29/29 6/6/29 11/11/29 3/3/29 
s 2
f 18/20/26 23/29/22 3/3/3 2/2/2 
f 19/25/21 22/28/22 21/27/22 20/26/3 
# 22 polygons

