# 3ds Max Wavefront OBJ Exporter v0.97b - (c)2007 guruware
# File Created: 26.10.2015 22:06:04

mtllib Inner Wall 4.mtl

#
# object Inner_Walll_04
#

v  335644.0938 119618.8516 59183.1016
v  328160.3438 119618.8516 57863.5156
v  328160.3438 119618.8438 -57863.5156
v  335644.0938 119618.8438 -59183.1016
v  335644.0625 137370.8125 59183.1016
v  335644.0625 137370.7969 -59183.0938
v  328165.1875 139120.8125 57864.4453
v  335639.2188 139120.8125 59182.1680
v  335639.1875 139120.7969 -59182.3125
v  328165.2188 139120.7969 -57864.3086
v  328160.3438 137370.8125 57863.5195
v  328160.3438 137370.7969 -57863.5117
v  327675.4375 137870.8125 57778.0117
v  327675.4375 137870.7969 -57778.0117
v  335644.0625 137870.7969 -59183.1016
v  335644.0625 137870.7969 59183.0977
v  327675.4375 138620.8125 57778.0117
v  327675.4375 138620.7969 -57778.0117
v  335644.0625 138620.7969 -59183.1016
v  335644.0625 138620.7969 59183.0977
# 20 vertices

vn -0.0000 -1.0000 0.0000
vn 0.0000 -1.0000 0.0000
vn 1.0000 0.0000 0.0000
vn 0.0000 1.0000 -0.0000
vn -1.0000 -0.0000 -0.0000
vn -1.0000 0.0000 -0.0000
vn -0.7178 -0.6962 0.0000
vn 1.0000 -0.0000 0.0000
vn -0.7144 0.6998 -0.0000
vn 1.0000 0.0097 -0.0000
vn -0.1736 -0.0000 0.9848
vn -0.1736 0.0000 0.9848
vn -0.1736 0.0000 -0.9848
vn -0.1737 0.0000 -0.9848
vn -0.1736 -0.0000 -0.9848
# 15 vertex normals

vt 0.5998 0.8238 0.1590
vt 0.4649 0.8150 0.0342
vt 0.4649 0.0474 0.0343
vt 0.5998 0.0386 0.1590
vt 0.7316 0.8238 -0.0218
vt 0.7316 0.0386 -0.0218
vt 0.2748 0.8150 0.0330
vt 0.2156 0.8238 0.1577
vt 0.2156 0.0387 0.1577
vt 0.2748 0.0474 0.0330
vt 0.3215 0.8150 -0.1590
vt 0.3215 0.0474 -0.1590
vt 0.3246 0.8145 0.0279
vt 0.3246 0.0480 0.0279
vt 0.1716 0.0386 0.0278
vt 0.1716 0.8238 0.0279
vt 0.1690 0.8238 -0.0218
vt 0.1690 0.0386 -0.0218
vt 0.3208 0.8145 0.1054
vt 0.3208 0.0480 0.1054
vt 0.1754 0.0386 0.1054
vt 0.1754 0.8238 0.1054
vt 0.3133 0.9334 0.0000
vt 0.3133 0.8803 0.0000
vt 0.4395 0.8803 0.0000
vt 0.4395 0.9334 0.0000
vt 0.4430 0.9369 0.0000
vt 0.4430 0.8803 0.0000
vt 0.4483 0.8803 0.0000
vt 0.4483 0.9369 0.0000
vt 0.4519 0.8803 0.0000
vt 0.4519 0.9334 0.0000
vt 0.1690 0.9369 0.0000
vt 0.1690 0.8837 0.0000
vt 0.2951 0.8837 0.0000
vt 0.2951 0.9369 0.0000
vt 0.3040 0.8803 0.0000
vt 0.3040 0.9369 0.0000
vt 0.2987 0.9369 0.0000
vt 0.2987 0.8803 0.0000
vt 0.3075 0.8837 0.0000
vt 0.3075 0.9368 0.0000
# 42 texture coords

g Inner_Walll_04
usemtl Material__19
s 8
f 1/1/1 2/2/1 3/3/2 4/4/2 
s 16
f 5/5/3 1/1/3 4/4/3 6/6/3 
s 32
f 7/7/4 8/8/4 9/9/4 10/10/4 
s 64
f 2/2/5 11/11/5 12/12/6 3/3/6 
s off
f 13/13/7 14/14/7 12/12/7 11/11/7 
f 15/15/8 16/16/8 5/17/8 6/18/8 
f 17/19/6 18/20/6 14/14/6 13/13/6 
f 19/21/8 20/22/8 16/16/8 15/15/8 
f 7/7/9 10/10/9 18/20/9 17/19/9 
f 9/9/10 8/8/10 20/22/10 19/21/10 
f 2/23/11 1/24/11 5/25/11 11/26/11 
f 13/27/12 16/28/12 20/29/12 17/30/12 
f 20/29/11 8/31/11 7/32/11 17/30/11 
f 11/26/12 5/25/12 16/28/12 13/27/12 
f 4/33/13 3/34/13 12/35/13 6/36/13 
f 18/37/13 19/38/13 15/39/13 14/40/13 
f 10/41/14 9/42/14 19/38/14 18/37/14 
f 15/39/15 6/36/15 12/35/15 14/40/15 
# 18 polygons

