# 3ds Max Wavefront OBJ Exporter v0.97b - (c)2007 guruware
# File Created: 26.10.2015 21:12:15

mtllib Inner Wall 2.mtl

#
# object Inner_Wall_02
#

v  278462.3125 41484.1406 49100.4219
v  271940.0938 41484.1406 47950.3711
v  271940.0938 41484.1250 -47950.3672
v  278462.3438 41484.1250 -49100.4180
v  278462.3125 59236.0039 49100.4219
v  278462.3125 59236.0039 -49100.4063
v  271944.9375 60986.0938 47951.3008
v  278457.4688 60986.0898 49099.4922
v  278457.4375 60986.0781 -49099.6250
v  271944.9688 60986.0859 -47951.1523
v  271940.0625 59236.0078 47950.3789
v  271940.0625 59236.0078 -47950.3633
v  271455.1563 59736.0039 47864.8711
v  271455.1563 59736.0000 -47864.8594
v  271455.1563 60486.0039 47864.8750
v  271455.1563 60486.0000 -47864.8555
v  278462.3125 59736.0039 49100.4180
v  278462.3125 59736.0039 -49100.4102
v  278462.3125 60486.0039 49100.4180
v  278462.3125 60486.0078 -49100.4102
# 20 vertices

vn -0.0000 -1.0000 0.0000
vn 1.0000 0.0000 0.0000
vn 0.0000 1.0000 -0.0000
vn -1.0000 -0.0000 -0.0000
vn -0.7179 -0.6962 0.0000
vn -1.0000 0.0000 -0.0000
vn 1.0000 -0.0000 0.0000
vn -0.7144 0.6997 -0.0000
vn 1.0000 0.0097 -0.0000
vn -0.1736 0.0000 -0.9848
vn -0.1736 -0.0000 0.9848
vn -0.1737 -0.0000 -0.9848
vn -0.1736 0.0000 0.9848
# 13 vertex normals

vt 0.7070 0.9008 0.0470
vt 0.4392 0.8903 0.0075
vt 0.4392 0.0125 0.0075
vt 0.7070 0.0020 0.0470
vt 0.8839 0.9008 -0.0035
vt 0.8839 0.0020 -0.0035
vt 0.1978 0.8903 0.0072
vt 0.1255 0.9008 0.0466
vt 0.1255 0.0020 0.0466
vt 0.1978 0.0125 0.0071
vt 0.2769 0.8903 -0.0470
vt 0.2769 0.0125 -0.0470
vt 0.2813 0.8895 0.0103
vt 0.2813 0.0133 0.0103
vt 0.2369 0.8895 0.0320
vt 0.2369 0.0133 0.0320
vt 0.0063 0.9008 0.0103
vt 0.0020 0.9008 -0.0035
vt 0.0020 0.0020 -0.0035
vt 0.0063 0.0020 0.0103
vt 0.0123 0.9008 0.0320
vt 0.0123 0.0020 0.0320
vt 0.2251 0.9160 0.0000
vt 0.2251 0.9980 0.0000
vt 0.0020 0.9980 0.0000
vt 0.0020 0.9160 0.0000
vt 0.2408 0.9099 0.0000
vt 0.2408 0.9980 0.0000
vt 0.2314 0.9980 0.0000
vt 0.2314 0.9099 0.0000
vt 0.4794 0.9919 0.0000
vt 0.2563 0.9919 0.0000
vt 0.2563 0.9099 0.0000
vt 0.4794 0.9099 0.0000
vt 0.4857 0.9980 0.0000
vt 0.4857 0.9099 0.0000
vt 0.4951 0.9099 0.0000
vt 0.4951 0.9980 0.0000
vt 0.2471 0.9161 0.0000
vt 0.2471 0.9979 0.0000
vt 0.5014 0.9100 0.0000
vt 0.5014 0.9918 0.0000
# 42 texture coords

g Inner_Wall_02
usemtl wire_056037023
s 8
f 1/1/1 2/2/1 3/3/1 4/4/1 
s 16
f 5/5/2 1/1/2 4/4/2 6/6/2 
s 32
f 7/7/3 8/8/3 9/9/3 10/10/3 
s 64
f 2/2/4 11/11/4 12/12/4 3/3/4 
s off
f 13/13/5 14/14/5 12/12/5 11/11/5 
f 15/15/6 16/16/6 14/14/6 13/13/6 
f 17/17/7 5/18/7 6/19/7 18/20/7 
f 7/7/8 10/10/8 16/16/8 15/15/8 
f 9/9/9 8/8/9 19/21/9 20/22/9 
f 17/17/7 18/20/7 20/22/7 19/21/7 
f 12/23/10 6/24/10 4/25/10 3/26/10 
f 16/27/10 20/28/10 18/29/10 14/30/10 
f 11/31/11 2/32/11 1/33/11 5/34/11 
f 13/35/11 17/36/11 19/37/11 15/38/11 
f 18/29/10 6/24/10 12/23/10 14/30/10 
f 10/39/12 9/40/12 20/28/12 16/27/12 
f 17/36/13 13/35/13 11/31/13 5/34/13 
f 19/37/11 8/41/11 7/42/11 15/38/11 
# 18 polygons

