# 3ds Max Wavefront OBJ Exporter v0.97b - (c)2007 guruware
# File Created: 26.10.2015 16:20:04

mtllib Pillar 2nd 3rd Floor.mtl

#
# object Pillar_3rd_Floor_007
#

v  398000.0938 118871.9063 18359.2539
v  398000.0938 77499.5156 18359.2539
v  397999.6563 77499.5156 27640.7461
v  397999.6563 118871.9063 27640.7461
v  403772.3750 75499.5156 19761.6777
v  403772.3125 75499.5156 26238.4082
v  403772.3125 65499.5156 26238.4082
v  403772.2500 65499.5156 19761.5039
v  402500.0938 118871.9063 20556.2227
v  402500.0938 118871.9063 25443.7773
v  402500.0938 77499.5156 25443.7773
v  402500.0938 77499.5156 20556.2207
v  403136.2188 126570.5156 20158.9063
v  403136.2500 126570.5156 25841.0488
v  403136.1875 120265.7266 25841.1367
v  403136.2188 120265.7266 20158.9063
v  397999.6563 65499.5156 17011.3203
v  397999.6563 75499.5156 17011.3203
v  397999.6563 120265.7266 17685.2871
v  397999.6563 126570.5156 17685.2871
v  397999.6563 126570.5156 28314.7129
v  397999.6563 120265.7266 28314.7129
v  397999.6563 75499.5156 28988.6797
v  397999.6563 65499.5156 28988.6797
# 24 vertices

vn -1.0000 -0.0002 -0.0000
vn -1.0000 0.0001 -0.0000
vn -1.0000 0.0000 -0.0000
vn -1.0000 -0.0000 -0.0000
vn 1.0000 -0.0000 0.0000
vn 1.0000 0.0000 0.0000
vn 1.0000 -0.0000 -0.0000
vn 0.4301 0.0000 -0.9028
vn 0.4301 -0.0000 -0.9028
vn 0.4387 0.0000 -0.8986
vn 0.4339 -0.0000 -0.9010
vn 0.4339 0.0000 -0.9010
vn 0.4339 0.0000 0.9010
vn 0.4339 -0.0000 0.9010
vn 0.4387 -0.0000 0.8986
vn 0.4301 -0.0000 0.9028
vn 0.4301 0.0000 0.9028
vn 0.3984 -0.4068 0.8220
vn 0.9097 -0.4152 0.0000
vn 0.3984 -0.4068 -0.8221
vn -1.0000 -0.0001 -0.0000
vn -1.0000 0.0000 0.0000
vn 0.0000 1.0000 -0.0000
vn 0.0000 -1.0000 -0.0000
vn 0.3687 0.5273 -0.7655
vn 0.8438 0.5367 0.0000
vn 0.3687 0.5273 0.7655
# 27 vertex normals

vt 0.3103 0.8542 0.1059
vt 0.3103 0.1936 0.1059
vt 0.5149 0.1936 0.1059
vt 0.5149 0.8542 0.1059
vt 0.9771 0.1617 0.0418
vt 0.8232 0.1617 0.0418
vt 0.8232 0.0020 0.0418
vt 0.9771 0.0020 0.0418
vt 0.9980 0.8542 -0.1805
vt 0.8023 0.8542 -0.1805
vt 0.8023 0.1936 -0.1805
vt 0.9980 0.1936 -0.1805
vt 0.9850 0.9771 -0.0703
vt 0.8153 0.9771 -0.0703
vt 0.8153 0.8764 -0.0703
vt 0.9850 0.8764 -0.0703
vt 0.0020 0.1617 0.0418
vt 0.0020 0.0020 0.0418
vt 0.2907 0.0020 0.1805
vt 0.2907 0.1617 0.1805
vt 0.0229 0.8542 -0.1805
vt 0.0229 0.1936 -0.1805
vt 0.0099 0.9771 -0.0703
vt 0.0099 0.8764 -0.0703
vt 0.3000 0.8764 0.1419
vt 0.3000 0.9771 0.1419
vt 0.5253 0.9771 0.1419
vt 0.5253 0.8764 0.1419
vt 0.5345 0.1617 0.1805
vt 0.5345 0.0020 0.1805
# 30 texture coords

g Pillar_3rd_Floor_007
usemtl wire_032017000
s 2
f 1/1/1 2/2/2 3/3/3 4/4/4 
s 4
f 5/5/5 6/6/6 7/7/7 8/8/7 
f 9/9/5 10/10/5 11/11/5 12/12/5 
f 13/13/7 14/14/7 15/15/5 16/16/5 
s 16
f 5/17/8 8/18/8 17/19/8 18/20/9 
f 9/21/10 12/22/10 2/2/10 1/1/10 
f 13/23/11 16/24/12 19/25/12 20/26/11 
s 64
f 15/15/13 14/14/13 21/27/13 22/28/14 
f 11/11/15 10/10/15 4/4/15 3/3/15 
f 7/7/16 6/6/17 23/29/17 24/30/16 
s off
f 15/15/18 22/28/18 4/4/18 10/10/18 
f 16/16/19 15/15/19 10/10/19 9/9/19 
f 19/25/20 16/24/20 9/21/20 1/1/20 
s 2
f 19/25/21 1/1/1 4/4/4 22/28/22 
s 32
f 20/26/23 21/27/23 14/14/23 13/13/23 
s 8
f 24/30/24 17/19/24 8/8/24 7/7/24 
s 2
f 17/19/22 24/30/22 23/29/22 18/20/2 
s off
f 5/17/25 18/20/25 2/2/25 12/22/25 
f 6/6/26 5/5/26 12/12/26 11/11/26 
f 23/29/27 6/6/27 11/11/27 3/3/27 
s 2
f 18/20/2 23/29/22 3/3/3 2/2/2 
f 19/25/21 22/28/22 21/27/22 20/26/3 
# 22 polygons

