# 3ds Max Wavefront OBJ Exporter v0.97b - (c)2007 guruware
# File Created: 26.10.2015 16:58:22

mtllib Outer Wall Large.mtl

#
# object Outer_Wall_Large_01
#

v  394891.5625 225000.0469 69612.8359
v  394696.7188 225000.0313 -69612.8594
v  383466.0313 225000.0625 -67632.5547
v  383660.8750 225000.0781 67632.5938
v  394891.5313 208371.7031 69612.8359
v  394696.6563 208371.6875 -69612.8516
v  383660.8438 208371.7344 67632.5859
v  383466.0000 208371.7188 -67632.5469
# 8 vertices

vn 0.0000 1.0000 -0.0000
vn 1.0000 -0.0000 -0.0014
vn -0.1736 0.0000 0.9848
vn -0.1737 -0.0000 -0.9848
# 4 vertex normals

vt 0.0019 0.3719 0.0000
vt 0.5489 0.3795 0.0000
vt 0.5426 0.4263 0.0000
vt 0.0083 0.4187 0.0000
vt 0.0020 0.3715 0.0000
vt 0.0020 0.3255 0.0000
vt 0.5426 0.3255 0.0000
vt 0.5426 0.3715 0.0000
vt 0.6508 0.4282 0.0000
vt 0.6508 0.4873 0.0000
vt 0.5927 0.4873 0.0000
vt 0.5927 0.4282 0.0000
vt 0.6479 0.4105 0.0000
vt 0.6479 0.3514 0.0000
vt 0.5898 0.3514 0.0000
vt 0.5898 0.4105 0.0000
# 16 texture coords

g Outer_Wall_Large_01
usemtl wire_135104084
s 32
f 1/1/1 2/2/1 3/3/1 4/4/1 
s 4
f 1/5/2 5/6/2 6/7/2 2/8/2 
s off
f 5/9/3 1/10/3 4/11/3 7/12/3 
f 2/13/4 6/14/4 8/15/4 3/16/4 
# 4 polygons

