# 3ds Max Wavefront OBJ Exporter v0.97b - (c)2007 guruware
# File Created: 26.10.2015 17:09:47

mtllib Body.mtl

#
# object Stadium__Body
#

v  392081.5000 78000.0781 69186.6094
v  392081.4688 77999.6641 0.2969
v  392081.4688 93999.4688 0.1953
v  392081.5000 94000.1719 69195.1875
v  309751.0938 77999.9844 0.0938
v  309751.0938 77999.9844 -54617.4609
v  295720.8750 77999.9844 -52143.5508
v  295720.8750 77999.9844 0.0977
v  248328.8906 19999.9844 0.0508
v  248328.9063 19999.9844 -43787.1094
v  243997.2344 19999.9844 -43023.3203
v  243997.2188 19999.9844 0.0508
v  266238.4375 43999.9844 0.0430
v  266238.4688 43999.9844 -46945.0703
v  277858.0938 54999.9844 -48993.8477
v  277844.4688 54999.9844 0.1055
v  350871.6563 150999.9844 0.1016
v  346540.0313 150999.9844 0.1133
v  346540.0000 150999.9844 61104.5547
v  350871.7188 150999.9688 61868.2813
v  309751.5000 93999.9844 0.0859
v  309765.0938 93999.9688 54620.1250
v  392081.9063 294000.2500 0.1172
v  392081.5000 294000.2500 -69130.0938
v  368780.5938 294000.0000 -65025.9531
v  368783.0000 294000.0000 0.1016
v  350962.1875 184999.9844 0.1094
v  350962.3750 184999.9844 -61884.1406
v  350871.6875 150999.9844 -61867.7148
v  368782.5000 215824.3594 0.1016
v  368780.5313 215823.9688 -65025.9492
v  295720.8438 77999.9844 52143.7656
v  309751.0625 77999.9688 54617.6484
v  243997.1875 19999.9844 43023.4375
v  248328.8750 19999.9844 43787.2305
v  266238.4375 43999.9844 46945.1523
v  277844.5000 43999.9844 0.0781
v  277844.4688 43999.9688 48991.6523
v  277858.0938 54999.9844 48994.0742
v  346540.0625 150999.9844 -61104.3320
v  309765.1250 93999.9844 -54619.9414
v  392081.4688 294000.2500 69119.3828
v  368780.5313 294000.0000 65026.1445
v  350962.3750 184999.9688 61884.2930
v  368780.4688 215824.3594 65026.1250
v  392081.5000 94000.2578 -69179.3359
v  392081.4688 78000.1328 -69174.1641
v  392081.4063 215822.0313 0.3672
v  392081.5000 215826.4063 0.1094
v  392081.5000 215823.6094 69220.9219
v  392081.5000 215823.7813 -69194.9219
v  392081.5000 263500.5000 -50999.9961
v  392081.5000 245000.0938 -51000.0156
v  392081.4688 245000.0938 -40999.9766
v  368782.5313 244999.3281 -40999.9922
v  368782.5313 244999.3281 -50999.9883
v  368782.5313 263499.8750 -50999.9844
v  368782.5625 263499.5000 -41000.0078
v  392081.5000 263500.1250 -40999.9922
v  392081.5000 245000.1094 51000.0391
v  368782.5938 244999.3281 50999.9766
v  368782.5313 263499.8750 51000.0078
v  392081.5000 263500.5000 51000.0313
v  392081.5000 245000.2344 41000.0000
v  368782.5000 244999.3281 41000.0273
v  368782.4063 263499.8750 41000.0195
v  392081.5000 263500.5000 40999.9922
v  368782.5313 245000.2500 0.1055
v  368782.5625 245000.2344 -4999.9766
v  368782.5313 263499.8125 0.1055
v  368782.4375 263499.8125 5000.0117
v  392081.5000 245000.2344 0.0625
v  392081.5000 245000.2188 5000.0000
v  277844.5000 43999.9844 -48991.4805
v  392081.4688 263499.8125 0.1406
v  392081.5000 263499.8125 -5000.0000
v  368782.5938 263499.8125 -4999.9961
v  368782.4375 245000.2344 5000.0273
v  392081.4688 263499.8125 5000.0234
v  392081.5000 245000.2188 -5000.0000
v  248328.8750 -0.0156 43787.2461
v  243997.2031 -0.0156 43023.4531
v  243997.2344 -0.0156 -43023.3047
v  248328.9063 -0.0156 -43787.0977
v  277844.0000 -0.0156 -48991.3750
v  266238.4688 -0.0156 -46945.0195
v  309751.0938 43999.9688 -54617.4609
v  309751.0938 -0.0156 -54617.4570
v  295720.8750 -0.0156 -52143.5508
v  295720.8750 43999.9688 -52143.5508
v  266238.4063 -0.0156 46945.1875
v  277843.9375 -0.0156 48991.5742
v  309751.0938 43999.9648 54617.6445
v  295720.8438 43999.9766 52143.7656
v  295720.8438 -0.0156 52143.7656
v  309751.0938 -0.0156 54617.6602
v  392081.5000 185000.3594 69212.3438
v  392081.4688 184999.0625 0.2969
v  392081.4688 151000.2656 69203.7578
v  392081.5000 150999.2656 0.2422
v  392081.5000 185000.5000 -69189.7266
v  392081.5000 151000.3750 -69184.5234
v  350857.2813 94000.0703 61877.2656
v  350866.5313 78000.0234 61871.7305
v  350853.8438 94000.1250 -61873.5156
v  350859.1250 78000.0625 -61869.6797
v  392081.4688 43999.9688 0.2891
v  392081.5000 43999.9688 -69166.3594
v  350877.5625 43999.9688 -61865.7813
v  350891.0625 43999.9688 61865.2695
v  392081.5000 43999.9688 69173.7188
v  392081.5000 -2.2285 -69158.5859
v  350896.0625 -1.1211 -61861.8906
v  351129.5000 -1.0977 61858.8672
v  392081.5000 -2.1808 69161.0156
v  392081.4688 -1.7159 -0.0312
# 116 vertices

vn 1.0000 0.0000 -0.0000
vn 1.0000 -0.0000 -0.0000
vn 0.0000 1.0000 -0.0000
vn -0.8014 0.5981 -0.0000
vn -0.7897 0.6135 -0.0001
vn 0.0000 1.0000 0.0000
vn -0.8402 0.5422 0.0001
vn -0.0000 1.0000 0.0000
vn -1.0000 0.0027 -0.0000
vn -0.8657 0.5005 0.0000
vn -0.7897 0.6135 0.0001
vn -0.8402 0.5422 -0.0001
vn -0.0000 1.0000 -0.0000
vn -1.0000 0.0027 0.0000
vn -0.8657 0.5005 -0.0000
vn 1.0000 -0.0000 0.0000
vn 0.9999 -0.0107 0.0000
vn 0.9999 -0.0143 -0.0000
vn 1.0000 0.0000 0.0000
vn -1.0000 0.0000 0.0000
vn -1.0000 0.0000 0.0001
vn -1.0000 -0.0000 0.0000
vn 0.0000 -0.0000 -1.0000
vn 0.0000 0.0000 -1.0000
vn 0.0000 -0.0000 1.0000
vn 0.0000 -1.0000 -0.0000
vn -1.0000 0.0000 -0.0000
vn -1.0000 -0.0000 -0.0000
vn -1.0000 -0.0001 0.0000
vn -1.0000 0.0001 -0.0000
vn -1.0000 0.0001 0.0000
vn -1.0000 -0.0000 -0.0001
vn -1.0000 0.0000 -0.0001
vn -1.0000 -0.0000 -0.0002
vn 0.0000 0.0000 1.0000
vn -0.0000 0.0000 -1.0000
vn -0.1736 0.0000 0.9848
vn -0.1736 -0.0000 -0.9848
vn -0.1748 0.0004 -0.9846
vn -0.1751 0.0006 0.9846
vn -0.1737 0.0000 0.9848
vn -0.1761 0.0006 0.9844
vn -0.1754 0.0004 -0.9845
vn -0.1753 -0.0001 0.9845
vn -0.1749 -0.0001 -0.9846
vn -0.1738 -0.0002 0.9848
vn -0.1745 -0.0003 -0.9847
vn -0.1736 0.0000 -0.9848
vn -0.1736 -0.0000 0.9848
vn -0.1745 -0.0002 -0.9847
vn -0.1747 -0.0003 0.9846
vn -0.1738 0.0001 -0.9848
vn -0.1751 -0.0007 0.9845
vn -0.1738 -0.0001 -0.9848
vn -0.1737 -0.0001 -0.9848
vn -0.1747 0.0000 -0.9846
vn -0.1735 -0.0001 -0.9848
vn -0.1739 0.0002 0.9848
vn -0.1748 -0.0005 0.9846
vn -0.1736 -0.0002 0.9848
vn -0.1729 -0.0005 0.9849
vn -0.1750 0.0000 0.9846
# 62 vertex normals

vt 0.6843 0.1399 0.0000
vt 0.8411 0.1399 0.0000
vt 0.8411 0.1681 0.0000
vt 0.6842 0.1681 0.0000
vt 0.3111 0.6558 0.0000
vt 0.3111 0.7689 0.0000
vt 0.2839 0.7638 0.0000
vt 0.2839 0.6558 0.0000
vt 0.3515 0.8443 0.0000
vt 0.3515 0.9350 0.0000
vt 0.3431 0.9334 0.0000
vt 0.3431 0.8443 0.0000
vt 0.4410 0.7453 0.0000
vt 0.5390 0.7453 0.0000
vt 0.5324 0.6878 0.0000
vt 0.4410 0.6878 0.0000
vt 0.1086 0.8899 0.0000
vt 0.2152 0.8899 0.0000
vt 0.2087 0.8328 0.0000
vt 0.1086 0.8328 0.0000
vt 0.7755 0.6816 0.0000
vt 0.7684 0.6816 0.0000
vt 0.7684 0.5318 0.0000
vt 0.7755 0.5299 0.0000
vt 0.4646 0.6795 0.0000
vt 0.4646 0.5427 0.0000
vt 0.3560 0.5427 0.0000
vt 0.3431 0.6795 0.0000
vt 0.7293 0.6731 0.0000
vt 0.7293 0.8162 0.0000
vt 0.6842 0.8077 0.0000
vt 0.6842 0.6731 0.0000
vt 0.1388 0.6097 0.0000
vt 0.2690 0.6097 0.0000
vt 0.2690 0.5428 0.0000
vt 0.1388 0.5428 0.0000
vt 0.1388 0.6704 0.0000
vt 0.2756 0.6704 0.0000
vt 0.2839 0.5479 0.0000
vt 0.3111 0.5428 0.0000
vt 0.3431 0.7552 0.0000
vt 0.3515 0.7536 0.0000
vt 0.3497 0.6878 0.0000
vt 0.3431 0.7453 0.0000
vt 0.7601 0.6314 0.0000
vt 0.7376 0.6314 0.0000
vt 0.7376 0.5342 0.0000
vt 0.7601 0.5299 0.0000
vt 0.0084 0.8328 0.0000
vt 0.0020 0.8899 0.0000
vt 0.7684 0.8313 0.0000
vt 0.7755 0.8332 0.0000
vt 0.5732 0.5427 0.0000
vt 0.5861 0.6795 0.0000
vt 0.7293 0.5299 0.0000
vt 0.6842 0.5384 0.0000
vt 0.0086 0.5428 0.0000
vt 0.0086 0.6097 0.0000
vt 0.0020 0.6704 0.0000
vt 0.9980 0.1681 0.0000
vt 0.9980 0.1399 0.0000
vt 0.8411 0.3834 0.0000
vt 0.8411 0.3835 0.0000
vt 0.6842 0.3834 0.0000
vt 0.9980 0.3834 0.0000
vt 0.9979 0.5216 0.0000
vt 0.9567 0.4677 0.0000
vt 0.9567 0.4350 0.0000
vt 0.9341 0.4350 0.0000
vt 0.2251 0.7279 0.0000
vt 0.2461 0.7279 0.0000
vt 0.2756 0.8244 0.0000
vt 0.2461 0.7644 0.0000
vt 0.1388 0.8244 0.0000
vt 0.2251 0.7644 0.0000
vt 0.2686 0.8881 0.0000
vt 0.2235 0.8881 0.0000
vt 0.2235 0.8674 0.0000
vt 0.2686 0.8674 0.0000
vt 0.6130 0.6878 0.0000
vt 0.5473 0.6878 0.0000
vt 0.5473 0.7141 0.0000
vt 0.6130 0.7141 0.0000
vt 0.2892 0.8328 0.0000
vt 0.2235 0.8328 0.0000
vt 0.2235 0.8590 0.0000
vt 0.2892 0.8590 0.0000
vt 0.1211 0.9189 0.0000
vt 0.0760 0.9189 0.0000
vt 0.0760 0.8982 0.0000
vt 0.1211 0.8982 0.0000
vt 0.0677 0.9245 0.0000
vt 0.0020 0.9245 0.0000
vt 0.0020 0.8982 0.0000
vt 0.0677 0.8982 0.0000
vt 0.7293 0.8245 0.0000
vt 0.6842 0.8245 0.0000
vt 0.6842 0.8452 0.0000
vt 0.7293 0.8452 0.0000
vt 0.5924 0.7224 0.0000
vt 0.5473 0.7224 0.0000
vt 0.5473 0.7431 0.0000
vt 0.5924 0.7431 0.0000
vt 0.8411 0.5216 0.0000
vt 0.9341 0.4677 0.0000
vt 0.1388 0.7279 0.0000
vt 0.1493 0.7279 0.0000
vt 0.0525 0.7644 0.0000
vt 0.0315 0.7644 0.0000
vt 0.0020 0.8244 0.0000
vt 0.0315 0.7279 0.0000
vt 0.0525 0.7279 0.0000
vt 0.1388 0.7644 0.0000
vt 0.1283 0.7644 0.0000
vt 0.7482 0.4350 0.0000
vt 0.7255 0.4350 0.0000
vt 0.6844 0.5216 0.0000
vt 0.7255 0.4677 0.0000
vt 0.7482 0.4677 0.0000
vt 0.8411 0.4350 0.0000
vt 0.8298 0.4350 0.0000
vt 0.5944 0.5427 0.0000
vt 0.6601 0.5427 0.0000
vt 0.6601 0.5690 0.0000
vt 0.5944 0.5690 0.0000
vt 0.7376 0.7286 0.0000
vt 0.7601 0.7328 0.0000
vt 0.8411 0.4677 0.0000
vt 0.8525 0.4677 0.0000
vt 0.1493 0.7644 0.0000
vt 0.1283 0.7279 0.0000
vt 0.8298 0.4677 0.0000
vt 0.8525 0.4350 0.0000
vt 0.6395 0.5877 0.0000
vt 0.5944 0.5877 0.0000
vt 0.5944 0.5981 0.0000
vt 0.6395 0.5981 0.0000
vt 0.6395 0.5774 0.0000
vt 0.5944 0.5774 0.0000
vt 0.0471 0.9535 0.0000
vt 0.0020 0.9535 0.0000
vt 0.0020 0.9432 0.0000
vt 0.0471 0.9432 0.0000
vt 0.0020 0.9328 0.0000
vt 0.0471 0.9328 0.0000
vt 0.3598 0.7799 0.0000
vt 0.3598 0.7536 0.0000
vt 0.4255 0.7536 0.0000
vt 0.4255 0.7799 0.0000
vt 0.8495 0.5562 0.0000
vt 0.8495 0.5299 0.0000
vt 0.7838 0.5299 0.0000
vt 0.7838 0.5562 0.0000
vt 0.0117 0.0020 0.0000
vt 0.0117 0.0382 0.0000
vt 0.0020 0.0382 0.0000
vt 0.0020 0.0020 0.0000
vt 0.3431 0.0020 0.0000
vt 0.3431 0.0382 0.0000
vt 0.3528 0.0382 0.0000
vt 0.3528 0.0020 0.0000
vt 0.6759 0.3928 0.0000
vt 0.6235 0.3928 0.0000
vt 0.6235 0.5344 0.0000
vt 0.6759 0.5344 0.0000
vt 0.3348 0.5344 0.0000
vt 0.2824 0.5344 0.0000
vt 0.2824 0.3928 0.0000
vt 0.3348 0.3928 0.0000
vt 0.4192 0.0817 0.0000
vt 0.4192 0.0020 0.0000
vt 0.3931 0.0020 0.0000
vt 0.3931 0.0817 0.0000
vt 0.4908 0.0817 0.0000
vt 0.4908 0.0020 0.0000
vt 0.4593 0.0020 0.0000
vt 0.4593 0.0817 0.0000
vt 0.0520 0.0020 0.0000
vt 0.0520 0.0817 0.0000
vt 0.0781 0.0020 0.0000
vt 0.0781 0.0817 0.0000
vt 0.1498 0.0817 0.0000
vt 0.1182 0.0817 0.0000
vt 0.1182 0.0020 0.0000
vt 0.1498 0.0020 0.0000
vt 0.6842 0.3290 0.0000
vt 0.8411 0.3290 0.0000
vt 0.6842 0.2689 0.0000
vt 0.8411 0.2689 0.0000
vt 0.9980 0.3290 0.0000
vt 0.9980 0.2689 0.0000
vt 0.3348 0.3370 0.0000
vt 0.2424 0.3370 0.0000
vt 0.6759 0.3370 0.0000
vt 0.5835 0.3370 0.0000
vt 0.2422 0.2755 0.0000
vt 0.3348 0.2755 0.0000
vt 0.6759 0.2755 0.0000
vt 0.5833 0.2755 0.0000
vt 0.2421 0.1722 0.0000
vt 0.1498 0.1722 0.0000
vt 0.1498 0.1433 0.0000
vt 0.2421 0.1433 0.0000
vt 0.5832 0.1722 0.0000
vt 0.6759 0.1722 0.0000
vt 0.6759 0.1433 0.0000
vt 0.5832 0.1433 0.0000
vt 0.4593 0.1433 0.0000
vt 0.4908 0.1433 0.0000
vt 0.1182 0.1433 0.0000
vt 0.0781 0.1016 0.0000
vt 0.4192 0.1016 0.0000
vt 0.8411 0.0798 0.0000
vt 0.9979 0.0798 0.0000
vt 0.6759 0.0817 0.0000
vt 0.5833 0.0817 0.0000
vt 0.2422 0.0817 0.0000
vt 0.3348 0.0817 0.0000
vt 0.3348 0.1433 0.0000
vt 0.4909 0.1722 0.0000
vt 0.5735 0.2755 0.0000
vt 0.6759 0.0020 0.0000
vt 0.5833 0.0020 0.0000
vt 0.2427 0.0020 0.0000
vt 0.3348 0.0020 0.0000
vt 0.2324 0.2755 0.0000
vt 0.3348 0.1722 0.0000
vt 0.6843 0.0798 0.0000
vt 0.8411 0.0020 0.0000
vt 0.9979 0.0020 0.0000
vt 0.6843 0.0020 0.0000
# 231 texture coords

g Stadium__Body
usemtl wire_177127094
s 8
f 1/1/1 2/2/2 3/3/2 4/4/1 
s off
f 5/5/3 6/6/3 7/7/3 8/8/3 
f 9/9/3 10/10/3 11/11/3 12/12/3 
f 13/13/4 14/14/4 10/15/4 9/16/4 
f 8/17/5 7/18/5 15/19/5 16/20/5 
f 17/21/6 18/22/6 19/23/6 20/24/6 
f 18/25/7 21/26/7 22/27/7 19/28/7 
f 23/29/8 24/30/8 25/31/8 26/32/8 
f 27/33/9 28/34/9 29/35/9 17/36/9 
f 30/37/10 31/38/10 28/34/10 27/33/10 
f 5/5/6 8/8/6 32/39/6 33/40/6 
f 9/9/3 12/12/3 34/41/3 35/42/3 
f 13/13/4 9/16/4 35/43/4 36/44/4 
f 37/45/6 13/46/6 36/47/6 38/48/6 
f 8/17/11 16/20/11 39/49/11 32/50/11 
f 40/51/3 18/22/3 17/21/3 29/52/3 
f 41/53/12 21/26/12 18/25/12 40/54/12 
f 42/55/13 23/29/13 26/32/13 43/56/13 
f 27/33/14 17/36/14 20/57/14 44/58/14 
f 30/37/15 27/33/15 44/58/15 45/59/15 
s 8
f 46/60/16 3/3/2 2/2/2 47/61/16 
f 48/62/17 49/63/18 50/64/2 
f 51/65/19 49/63/18 48/62/17 
f 24/66/2 52/67/2 53/68/19 51/65/19 
f 49/63/18 51/65/19 53/68/19 54/69/19 
s off
f 31/38/20 30/37/20 55/70/20 56/71/20 
f 25/72/21 31/38/21 56/71/21 57/73/21 
f 26/74/22 25/72/22 57/73/22 58/75/22 
s 1
f 53/76/13 56/77/13 55/78/13 54/79/13 
s 2
f 54/80/23 55/81/23 58/82/23 59/83/23 
s 1
f 60/84/24 61/85/24 62/86/24 63/87/23 
s 2
f 64/88/8 65/89/8 61/90/8 60/91/8 
f 52/92/25 57/93/25 56/94/25 53/95/25 
f 63/96/26 62/97/26 66/98/26 67/99/26 
s 1
f 59/100/26 58/101/26 57/102/26 52/103/26 
s 8
f 23/104/2 59/105/2 52/67/2 24/66/2 
s off
f 30/37/27 68/106/27 69/107/27 55/70/27 
s 4
f 66/108/28 62/109/29 43/110/28 26/74/28 
f 45/59/30 61/111/31 65/112/30 30/37/27 
s 8
f 26/74/27 70/113/27 71/114/27 66/108/27 
f 45/59/32 43/110/33 62/109/33 61/111/34 
s 4
f 49/63/1 64/115/1 60/116/1 50/64/1 
f 42/117/16 63/118/1 67/119/16 23/104/16 
s 16
f 42/117/19 50/64/19 60/116/19 63/118/19 
f 49/63/1 72/120/1 73/121/1 64/115/1 
s off
f 65/122/35 64/123/35 67/124/35 66/125/35 
s 1
f 14/126/3 13/46/3 37/45/3 74/127/3 
s 8
f 23/104/2 75/128/16 76/129/16 59/105/2 
s off
f 58/75/20 55/70/20 69/107/20 77/130/20 
f 26/74/27 58/75/27 77/130/27 70/113/27 
s 8
f 65/112/22 66/108/27 71/114/27 78/131/28 
f 30/37/28 65/112/22 78/131/28 68/106/27 
s 16
f 67/119/2 64/115/1 73/121/1 79/132/2 
f 23/104/2 67/119/2 79/132/2 75/128/2 
s 8
f 54/69/19 59/105/2 76/129/16 80/133/2 
f 49/63/18 54/69/19 80/133/2 72/120/1 
s 1
f 75/134/26 70/135/26 77/136/26 76/137/26 
s 2
f 70/135/26 75/134/26 79/138/26 71/139/26 
s 1
f 80/140/3 69/141/3 68/142/3 72/143/3 
s 2
f 72/143/6 68/142/6 78/144/6 73/145/6 
s off
f 77/146/35 69/147/35 80/148/35 76/149/35 
f 79/150/36 73/151/36 78/152/36 71/153/36 
s 2
f 81/154/37 35/155/37 34/156/37 82/157/37 
f 83/158/38 11/159/38 10/160/38 84/161/38 
s off
f 51/162/39 31/163/39 25/164/39 24/165/39 
f 42/166/40 43/167/40 45/168/40 50/169/40 
f 74/170/38 85/171/38 86/172/38 14/173/38 
f 10/160/38 14/173/38 86/172/38 84/161/38 
f 87/174/38 88/175/38 89/176/38 90/177/38 
f 35/155/37 81/154/37 91/178/37 36/179/37 
f 36/179/41 91/178/41 92/180/41 38/181/41 
f 93/182/37 94/183/37 95/184/37 96/185/37 
s 8
f 97/186/2 98/187/19 48/62/17 50/64/2 
f 99/188/19 100/189/19 98/187/19 97/186/2 
f 4/4/1 3/3/2 100/189/19 99/188/19 
f 98/187/19 101/190/19 51/65/19 48/62/17 
f 100/189/19 102/191/16 101/190/19 98/187/19 
f 3/3/2 46/60/16 102/191/16 100/189/19 
s off
f 97/192/42 50/169/42 45/168/42 44/193/42 
f 31/163/43 51/162/43 101/194/43 28/195/43 
f 20/196/44 99/197/44 97/192/44 44/193/44 
f 28/195/45 101/194/45 102/198/45 29/199/45 
f 103/200/46 22/201/46 33/202/46 104/203/46 
f 105/204/47 46/205/47 47/206/47 106/207/47 
f 87/174/48 90/177/48 7/208/48 6/209/48 
f 94/183/49 93/182/49 33/202/49 32/210/49 
f 94/183/49 32/210/49 39/211/49 38/181/49 
f 90/177/48 74/170/48 15/212/48 7/208/48 
f 92/180/37 95/184/37 94/183/37 38/181/37 
f 89/176/38 85/171/38 74/170/38 90/177/38 
s 8
f 107/213/1 108/214/19 47/61/16 2/2/2 
s off
f 106/207/50 47/206/50 108/215/50 109/216/50 
f 110/217/51 111/218/51 1/219/51 104/203/51 
f 41/220/52 40/221/52 29/199/52 105/204/52 
f 108/215/50 112/222/50 113/223/50 109/216/50 
f 114/224/53 115/225/53 111/218/53 110/217/53 
f 105/204/54 106/207/54 6/209/54 41/220/54 
f 106/207/55 109/216/55 87/174/55 6/209/55 
f 46/205/56 105/204/56 29/199/56 102/198/56 
f 109/216/57 113/223/57 88/175/57 87/174/57 
f 20/196/58 19/226/58 22/201/58 103/200/58 
f 103/200/59 104/203/59 1/219/59 4/227/59 
f 110/217/60 104/203/60 33/202/60 93/182/60 
f 114/224/61 110/217/61 93/182/61 96/185/61 
f 20/196/62 103/200/62 4/227/62 99/197/62 
s 8
f 107/213/1 2/2/2 1/1/1 111/228/1 
s off
f 107/213/19 116/229/19 112/230/19 108/214/19 
f 111/228/1 115/231/1 116/229/1 107/213/1 
# 106 polygons - 2 triangles

