# 3ds Max Wavefront OBJ Exporter v0.97b - (c)2007 guruware
# File Created: 26.10.2015 21:48:10

mtllib Outer Trim B.mtl

#
# object Outer_Trim_B_01
#

v  401937.4375 61463.4258 70899.1563
v  401928.3750 54297.1602 70953.7578
v  401956.7500 54297.1602 -70792.8828
v  401946.5938 61463.4258 -70847.2969
v  402641.7188 63441.2813 71006.7578
v  402645.1875 63441.2813 -70987.0469
v  404487.5313 66148.4844 71308.2188
v  404486.3438 65209.3086 71315.3750
v  404484.1250 65209.3086 -71327.9531
v  404482.7813 66148.4844 -71335.0781
v  391904.8125 66144.1563 -68884.3516
v  391829.9063 66144.1563 69309.2188
v  391906.1563 65204.9883 -68877.2344
v  391908.6563 63437.1953 -68863.8125
v  391911.4688 61459.4297 -68848.7969
v  391921.6563 54293.1680 -68794.3906
v  391828.7188 65204.9883 69316.3750
v  391826.5000 63437.1953 69329.8438
v  391824.0000 61459.4297 69344.9141
v  391814.9688 54293.1680 69399.5156
# 20 vertices

vn 0.9849 -0.1731 0.0001
vn 1.0000 -0.0013 0.0002
vn 1.0000 0.0013 0.0001
vn 0.9851 -0.1722 0.0000
vn 0.9421 -0.3354 0.0001
vn 0.9429 -0.3330 0.0000
vn 1.0000 -0.0012 -0.0000
vn 1.0000 -0.0013 -0.0000
vn 1.0000 0.0014 -0.0000
vn -0.0003 1.0000 -0.0000
vn -0.0003 1.0000 0.0000
vn 0.6925 -0.7214 0.0000
vn -0.1912 -0.0077 -0.9815
vn -0.1937 -0.0060 -0.9810
vn -0.1912 0.0097 -0.9815
vn -0.1914 0.0085 -0.9815
vn -0.1940 -0.0077 -0.9810
vn -0.1941 -0.0015 -0.9810
vn -0.1953 -0.0077 -0.9807
vn -0.1951 -0.0069 -0.9807
vn -0.1940 -0.0008 -0.9810
vn -0.1560 0.0077 0.9877
vn -0.1535 0.0060 0.9881
vn -0.1532 0.0077 0.9882
vn -0.1558 -0.0085 0.9878
vn -0.1560 -0.0097 0.9877
vn -0.1521 0.0069 0.9883
vn -0.1519 0.0077 0.9884
vn -0.1531 0.0015 0.9882
vn -0.1532 0.0008 0.9882
# 30 vertex normals

vt 0.0025 0.1722 0.0000
vt 0.0023 0.1116 0.0000
vt 0.7051 0.1116 0.0000
vt 0.7054 0.1722 0.0000
vt 0.0020 0.1722 0.0000
vt 0.7060 0.1722 0.0000
vt 0.1330 0.4569 0.0000
vt 0.1329 0.4503 0.0000
vt 0.7120 0.4503 0.0000
vt 0.7120 0.4569 0.0000
vt 0.1671 0.0020 0.0000
vt 0.8329 0.0020 0.0000
vt 0.8215 0.1063 0.0000
vt 0.1764 0.1069 0.0000
vt 0.0369 0.7977 0.0000
vt 0.0369 0.2190 0.0000
vt 0.0225 0.2202 0.0000
vt 0.0225 0.7963 0.0000
vt 0.7108 0.2114 0.0000
vt 0.7989 0.2115 0.0000
vt 0.7989 0.2036 0.0000
vt 0.7108 0.2035 0.0000
vt 0.7860 0.1887 0.0000
vt 0.7108 0.1886 0.0000
vt 0.7811 0.1720 0.0000
vt 0.7109 0.1720 0.0000
vt 0.7812 0.1117 0.0000
vt 0.7109 0.1116 0.0000
vt 0.0623 0.3160 0.0000
vt 0.1506 0.3160 0.0000
vt 0.1506 0.3239 0.0000
vt 0.0623 0.3239 0.0000
vt 0.0623 0.3012 0.0000
vt 0.1377 0.3012 0.0000
vt 0.0622 0.2846 0.0000
vt 0.1328 0.2846 0.0000
vt 0.0622 0.2244 0.0000
vt 0.1328 0.2245 0.0000
# 38 texture coords

g Outer_Trim_B_01
usemtl Material__10
s 16
f 1/1/1 2/2/2 3/3/3 4/4/4 
f 5/5/5 1/1/1 4/4/4 6/6/6 
f 7/7/7 8/8/8 9/9/9 10/10/9 
s 32
f 7/11/10 10/12/11 11/13/11 12/14/10 
s off
f 9/15/12 8/16/12 5/17/12 6/18/12 
s 4
f 11/19/13 10/20/13 9/21/13 13/22/13 
s 8
f 13/22/14 9/21/15 6/23/16 14/24/17 
s 4
f 4/25/18 15/26/19 14/24/20 6/23/21 
s off
f 15/26/19 4/25/19 3/27/19 16/28/19 
s 4
f 17/29/22 8/30/22 7/31/22 12/32/22 
s 8
f 17/29/23 18/33/24 5/34/25 8/30/26 
s 4
f 18/33/27 19/35/28 1/36/29 5/34/30 
s off
f 19/35/28 20/37/28 2/38/28 1/36/28 
# 13 polygons

