# 3ds Max Wavefront OBJ Exporter v0.97b - (c)2007 guruware
# File Created: 26.10.2015 18:12:09

mtllib Outer Trim A.mtl

#
# object Outer_Trim_A
#

v  399675.8125 291268.5625 70473.5234
v  399385.5000 291268.5625 70422.3594
v  399385.4688 291268.6250 -70422.3047
v  399675.7500 291268.6250 -70473.4922
v  399067.4063 286513.9375 70366.2891
v  391333.5313 284878.9375 69003.0781
v  391333.5625 284879.0000 -69002.5391
v  399067.3750 286514.0000 -70366.2188
v  399756.9688 289113.5938 70487.8359
v  399067.4063 288140.9063 70366.2891
v  399067.3438 288140.9688 -70366.2109
v  399756.9063 289113.6563 -70487.8047
v  400271.6563 293955.0938 -70578.5625
v  400271.6875 293955.0000 70578.5625
v  391333.5625 291268.6250 -69002.5391
v  391333.5625 293955.0938 -69002.5391
v  399402.2500 293955.0938 -70425.2656
v  399385.0938 289924.6563 -70421.9063
v  391333.5625 289919.0000 -69002.5391
v  399756.9063 289924.9375 -70487.7969
v  391333.5625 289052.9688 -69002.5391
v  391333.5625 288140.9688 -69002.5391
v  399402.2813 293955.0000 70425.3125
v  399756.9375 289924.8438 70487.8281
v  399385.0938 289924.5938 70422.2813
v  391333.5313 293955.0000 69003.0781
v  391333.5313 291268.5625 69003.0781
v  391333.5313 289918.9063 69003.0781
v  391333.5313 289052.9063 69003.0781
v  391333.5313 288140.9063 69003.0781
# 30 vertices

vn 0.0000 -1.0000 -0.0000
vn 0.2068 -0.9784 -0.0000
vn 0.8158 -0.5783 -0.0000
vn 0.9763 -0.2166 -0.0000
vn -0.1736 -0.0000 -0.9848
vn -0.1736 -0.0001 -0.9848
vn -0.1736 0.0004 -0.9848
vn -0.1736 0.0000 -0.9848
vn -0.0000 1.0000 0.0000
vn 1.0000 0.0000 -0.0000
vn -0.0007 1.0000 0.0000
vn 1.0000 -0.0003 0.0000
vn 1.0000 -0.0003 -0.0000
vn -0.1736 0.0000 0.9848
vn -0.1736 -0.0000 0.9848
# 15 vertex normals

vt 0.0310 0.1470 0.0000
vt 0.0274 0.1470 0.0000
vt 0.0274 0.2584 0.0000
vt 0.0310 0.2585 0.0000
vt 0.1250 0.0020 0.0000
vt 0.0274 0.0031 0.0000
vt 0.0274 0.1134 0.0000
vt 0.1250 0.1145 0.0000
vt 0.1270 0.0073 0.0000
vt 0.1276 0.0053 0.0000
vt 0.8560 0.0053 0.0000
vt 0.8566 0.0073 0.0000
vt 0.9974 0.0109 0.0000
vt 0.9980 0.0153 0.0000
vt 0.1270 0.0153 0.0000
vt 0.1276 0.0109 0.0000
vt 0.1527 0.0419 0.0000
vt 0.1270 0.0419 0.0000
vt 0.1270 0.0504 0.0000
vt 0.1527 0.0504 0.0000
vt 0.1527 0.0377 0.0000
vt 0.1270 0.0377 0.0000
vt 0.1539 0.0377 0.0000
vt 0.1539 0.0352 0.0000
vt 0.1270 0.0350 0.0000
vt 0.1517 0.0321 0.0000
vt 0.1270 0.0321 0.0000
vt 0.1517 0.0270 0.0000
vt 0.1270 0.0218 0.0000
vt 0.1536 0.0419 0.0000
vt 0.1555 0.0504 0.0000
vt 0.0254 0.1542 0.0000
vt 0.0254 0.3799 0.0000
vt 0.0180 0.5905 0.0000
vt 0.0180 0.0020 0.0000
vt 0.1270 0.0089 0.0000
vt 0.8566 0.0089 0.0000
vt 0.0020 0.5925 0.0000
vt 0.0066 0.5924 0.0000
vt 0.0066 0.7040 0.0000
vt 0.0020 0.7039 0.0000
vt 0.8335 0.0199 0.0000
vt 0.1270 0.0199 0.0000
vt 0.1270 0.0172 0.0000
vt 0.8335 0.0172 0.0000
vt 0.0531 0.1366 0.0000
vt 0.0531 0.1450 0.0000
vt 0.0274 0.1450 0.0000
vt 0.0274 0.1366 0.0000
vt 0.0531 0.1324 0.0000
vt 0.0274 0.1323 0.0000
vt 0.0542 0.1298 0.0000
vt 0.0542 0.1324 0.0000
vt 0.0274 0.1296 0.0000
vt 0.0520 0.1267 0.0000
vt 0.0274 0.1267 0.0000
vt 0.0520 0.1216 0.0000
vt 0.0274 0.1165 0.0000
vt 0.0540 0.1366 0.0000
vt 0.0559 0.1450 0.0000
vt 0.1276 0.0020 0.0000
vt 0.8560 0.0020 0.0000
vt 0.0020 0.5846 0.0000
vt 0.0020 0.0079 0.0000
# 64 texture coords

g Outer_Trim_A
usemtl wire_078050030
s off
f 1/1/1 2/2/1 3/3/1 4/4/1 
s 8
f 5/5/2 6/6/2 7/7/2 8/8/2 
s off
f 9/9/3 10/10/3 11/11/3 12/12/3 
f 4/13/4 13/14/4 14/15/4 1/16/4 
f 3/17/5 15/18/5 16/19/5 17/20/5 
f 18/21/6 19/22/6 15/18/6 3/17/6 
f 18/21/7 20/23/7 12/24/7 19/22/7 
f 12/24/8 21/25/8 19/22/8 
f 11/26/5 22/27/5 21/25/5 12/24/5 
f 8/28/8 7/29/8 22/27/8 11/26/8 
f 4/30/5 3/17/5 17/20/5 13/31/5 
s 32
f 14/32/9 13/33/9 17/34/9 23/35/9 
s 16
f 24/36/10 9/9/10 12/12/10 20/37/10 
s off
f 25/38/11 24/39/11 20/40/11 18/41/11 
s 16
f 3/42/12 2/43/13 25/44/13 18/45/12 
s off
f 2/46/14 23/47/14 26/48/14 27/49/14 
f 25/50/15 2/46/15 27/49/15 28/51/15 
f 9/52/14 24/53/14 25/50/14 28/51/14 
f 9/52/14 28/51/14 29/54/14 
f 10/55/14 9/52/14 29/54/14 30/56/14 
f 5/57/15 10/55/15 30/56/15 6/58/15 
f 1/59/14 14/60/14 23/47/14 2/46/14 
s 16
f 5/61/10 8/62/10 11/11/10 10/10/10 
s 32
f 23/35/9 17/34/9 16/63/9 26/64/9 
# 22 polygons - 2 triangles

